<svg xmlns="http://www.w3.org/2000/svg" viewBox="0 0 112 112"><defs><style>.cls-1{fill:#8dd4bd}.cls-2{fill:#24272a}</style></defs><g id="Layer_2" data-name="Layer 2"><g id="Layer_1-2" data-name="Layer 1"><path class="cls-1" d="M86 53.48a17.94 17.94 0 00-2.74-4.75l-8 .88-3.26-7.4a17.92 17.92 0 00-5.47 0l-3.27 7.4-8-.88a17.94 17.94 0 00-2.74 4.75l4.7 6.52-4.77 6.52a17.94 17.94 0 002.74 4.75l8-.88 3.27 7.4a17.92 17.92 0 005.47 0l3.26-7.4 8 .88A17.94 17.94 0 0086 66.52L81.22 60zM69.22 66a6 6 0 116-6 6 6 0 01-6 6z"/><path class="cls-2" d="M2 2h108v9H2z"/><path class="cls-1" d="M83 20v18h18L83 20zM2 11h27v99H2zm27 81h81v18H29z"/><path class="cls-2" d="M107 112H5a5 5 0 01-5-5V5a5 5 0 015-5h102a5 5 0 015 5v102a5 5 0 01-5 5zM5 4a1 1 0 00-1 1v102a1 1 0 001 1h102a1 1 0 001-1V5a1 1 0 00-1-1z"/><path class="cls-2" d="M110 13H2a2 2 0 010-4h108a2 2 0 010 4zm-90 9H2a2 2 0 010-4h18a2 2 0 010 4z"/><path d="M6 9a2 2 0 01-.77-.15 1.88 1.88 0 01-.64-.44A2 2 0 014 7a1.72 1.72 0 010-.39 1.82 1.82 0 01.11-.38 1.63 1.63 0 01.19-.34 1.42 1.42 0 01.25-.3 1.42 1.42 0 01.3-.25 1.63 1.63 0 01.34-.19A1.66 1.66 0 015.61 5a2 2 0 01.78 0 1.82 1.82 0 01.38.11 1.63 1.63 0 01.34.19 1.42 1.42 0 01.3.25 1.42 1.42 0 01.25.3 2.27 2.27 0 01.19.34 1.82 1.82 0 01.15.42A1.72 1.72 0 018 7a2 2 0 01-.59 1.41 1.88 1.88 0 01-.64.44A2 2 0 016 9zm9 0a2 2 0 01-2-2 1.72 1.72 0 010-.39 2.72 2.72 0 01.11-.38 2.27 2.27 0 01.19-.34 1.76 1.76 0 01.24-.3 1.79 1.79 0 01.31-.25 1.63 1.63 0 01.34-.19 1.66 1.66 0 01.42-.15 2 2 0 011.8.55 1.42 1.42 0 01.25.3 2.27 2.27 0 01.19.34 2.72 2.72 0 01.11.38A1.72 1.72 0 0117 7a2 2 0 01-.59 1.41 1.88 1.88 0 01-.64.44A2 2 0 0115 9zm9 0a2 2 0 01-.77-.15 1.88 1.88 0 01-.64-.44A2 2 0 0122 7a1.72 1.72 0 010-.39 1.82 1.82 0 01.11-.38 2.27 2.27 0 01.19-.34 1.42 1.42 0 01.25-.3A2 2 0 0124.39 5a1.66 1.66 0 01.38.11 1.63 1.63 0 01.34.19 1.42 1.42 0 01.3.25 1.42 1.42 0 01.25.3 2.27 2.27 0 01.19.34 2.72 2.72 0 01.11.38A2.58 2.58 0 0126 7a2 2 0 01-2 2z" fill="#fff"/><path class="cls-2" d="M83 103H38a2 2 0 010-4h45a2 2 0 010 4zM20 31H2a2 2 0 010-4h18a2 2 0 010 4zm0 9H2a2 2 0 010-4h18a2 2 0 010 4zm0 9H2a2 2 0 010-4h18a2 2 0 010 4zm0 9H2a2 2 0 010-4h18a2 2 0 010 4zm0 9H2a2 2 0 010-4h18a2 2 0 010 4zm0 9H2a2 2 0 010-4h18a2 2 0 010 4zm0 9H2a2 2 0 010-4h18a2 2 0 010 4zm0 9H2a2 2 0 010-4h18a2 2 0 010 4zm9 18a2 2 0 01-2-2V11a2 2 0 014 0v99a2 2 0 01-2 2z"/><path class="cls-2" d="M110 94H29a2 2 0 010-4h81a2 2 0 010 4zm-9-9a2 2 0 01-2-2V38.83L82.17 22H40v61a2 2 0 01-4 0V20a2 2 0 012-2h45a2 2 0 011.41.59l18 18A2 2 0 01103 38v45a2 2 0 01-2 2z"/><path class="cls-2" d="M101 40H83a2 2 0 01-2-2V20a2 2 0 014 0v16h16a2 2 0 010 4zM69.22 80a20.53 20.53 0 01-3-.23 2 2 0 01-1.52-1.17L62 72.54l-6.58.71a2 2 0 01-1.78-.73 20.41 20.41 0 01-3.05-5.27 2 2 0 01.25-1.91L54.75 60l-3.92-5.34a2 2 0 01-.25-1.91 20.41 20.41 0 013.05-5.27 2 2 0 011.78-.73l6.58.71 2.67-6.06a2 2 0 011.52-1.17 20 20 0 016.08 0 2 2 0 011.53 1.17l2.67 6.06 6.54-.71a2 2 0 011.78.73 20.09 20.09 0 013 5.27 2 2 0 01-.25 1.91L83.7 60l3.91 5.34a2 2 0 01.25 1.91 20.09 20.09 0 01-3 5.27 2 2 0 01-1.78.73l-6.58-.71-2.71 6.06a2 2 0 01-1.53 1.17 20.43 20.43 0 01-3.04.23zm-1.36-4.06a15.56 15.56 0 002.73 0l2.8-6.35a2 2 0 012-1.19l6.9.75a15.09 15.09 0 001.37-2.36l-4.1-5.61a2 2 0 010-2.36l4.1-5.61a15.09 15.09 0 00-1.37-2.36l-6.9.75a2 2 0 01-2-1.19l-2.8-6.35a15.56 15.56 0 00-2.73 0l-2.81 6.35a2 2 0 01-2 1.19l-6.9-.75a14.64 14.64 0 00-1.37 2.36l4.1 5.61a2 2 0 010 2.36l-4.1 5.61a14.64 14.64 0 001.37 2.36L63 68.4a2 2 0 012 1.19zM69.22 68a8 8 0 118-8 8 8 0 01-8 8zm0-12a4 4 0 104 4 4 4 0 00-4-4z"/></g></g></svg>