<svg xmlns="http://www.w3.org/2000/svg" viewBox="0 0 112 111.25"><defs><style>.cls-2{fill:#24272a}</style></defs><g id="Layer_2" data-name="Layer 2"><g id="Layer_1-2" data-name="Layer 1"><path d="M31 18.56l7.82 11.73a4.49 4.49 0 017.68 3.21 4.48 4.48 0 014.11-4.5l-3.44-17.13A44.73 44.73 0 0031 18.56zM69 29a4.47 4.47 0 013.7 2L81 18.56a44.73 44.73 0 00-16.13-6.69l-3.52 17.36a4.59 4.59 0 011.87 1.13c.66.24 1.31.52 1.94.82A4.49 4.49 0 0169 29zm9 22.5v.1l22.13-4.43A44.73 44.73 0 0093.44 31L76.15 42.56A22.38 22.38 0 0178 51.5zM37.5 47v-3.33L18.56 31a44.73 44.73 0 00-6.69 16.13L33 51.4c.34-3.56 4.5-4.4 4.5-4.4zM31 93.44A44.76 44.76 0 0046.5 100V72.18c-.33-.14-.66-.3-1-.46zm33.5-21.32V98.5l.33 1.63A44.73 44.73 0 0081 93.44L66.19 71.29c-.55.3-1.11.58-1.69.83zM34.44 60.31l-22.57 4.52A44.73 44.73 0 0018.56 81l20.57-13.75a21.24 21.24 0 01-4.69-6.94zm37.62 6.4L93.44 81a44.73 44.73 0 006.69-16.13L76.3 60.06a22.57 22.57 0 01-4.24 6.65z" fill="#f0ec73"/><path class="cls-2" d="M47 49a2 2 0 01-2-2V33.5a2.5 2.5 0 00-5 0V47a2 2 0 01-4 0V33.5a6.5 6.5 0 0113 0V47a2 2 0 01-2 2z"/><path class="cls-2" d="M56 53.5a2 2 0 01-2-2v-18a2.5 2.5 0 00-5 0V47a2 2 0 01-4 0V33.5a6.5 6.5 0 0113 0v18a2 2 0 01-2 2z"/><path class="cls-2" d="M60.5 58a6.51 6.51 0 01-6.5-6.5v-18a6.5 6.5 0 0113 0v18a6.51 6.51 0 01-6.5 6.5zm0-27a2.5 2.5 0 00-2.5 2.5v18a2.5 2.5 0 005 0v-18a2.5 2.5 0 00-2.5-2.5z"/><path class="cls-2" d="M69.5 58a6.51 6.51 0 01-6.5-6.5v-18a6.5 6.5 0 0113 0v18a6.51 6.51 0 01-6.5 6.5zm0-27a2.5 2.5 0 00-2.5 2.5v18a2.5 2.5 0 005 0v-18a2.5 2.5 0 00-2.5-2.5zM56 67a2 2 0 01-2-2c0-3.31-6.56-7-11-7a2 2 0 010-4c5.9 0 15 4.72 15 11a2 2 0 01-2 2z"/><path class="cls-2" d="M65 111.25a2 2 0 01-2-2V72.12a2 2 0 011.19-1.83 20.49 20.49 0 008.22-31.09 2 2 0 113.19-2.4 24.59 24.59 0 01-2.28 32A24.31 24.31 0 0167 73.39v35.86a2 2 0 01-2 2zm-18 0a2 2 0 01-2-2V73.52a23 23 0 01-6.36-4.73c-2.43-2.57-5.08-6.83-7.87-12.68a7.75 7.75 0 017-11.11H51.9a6.1 6.1 0 015.1 2.75A2 2 0 1153.65 50a2.11 2.11 0 00-1.75-1H37.75a3.75 3.75 0 00-3.37 5.39c2.58 5.39 5 9.42 7.16 11.65a19.33 19.33 0 006.26 4.38 2 2 0 011.2 1.83v37a2 2 0 01-2 2z"/><path class="cls-2" d="M51.15 58H43a2 2 0 010-4h8.15A2.86 2.86 0 0054 51.15 2.11 2.11 0 0051.9 49H37.75a2 2 0 010-4H51.9a6.11 6.11 0 016.1 6.1 6.86 6.86 0 01-6.85 6.9z"/><path class="cls-2" d="M65 111.23a2 2 0 01-.33-4 52 52 0 0028.1-88 52 52 0 00-73.54 73.54 51.64 51.64 0 0028.1 14.49 2 2 0 01-.66 3.95A56 56 0 0116.4 16.4a56 56 0 0179.2 79.2 55.64 55.64 0 01-30.27 15.61z"/></g></g></svg>