<svg viewBox="0 0 112 112" xmlns="http://www.w3.org/2000/svg"><g fill="#f0ec73"><circle cx="60" cy="60" r="18"/><circle cx="96.5" cy="15.5" r="4.5"/><circle cx="15.5" cy="15.5" r="4.5"/><circle cx="96.5" cy="96.5" r="4.5"/><circle cx="15.5" cy="96.5" r="4.5"/></g><path d="M64.17 47.31a1.83 1.83 0 00-2.56.52l-8 13.3L50.39 55a1.85 1.85 0 00-3.08 2l4.77 7.14a1.84 1.84 0 003.08 0l9.53-14.29a1.85 1.85 0 00-.52-2.54zM56 36a20 20 0 1020 20 20 20 0 00-20-20zm0 36a16 16 0 1116-16 16 16 0 01-16 16zm34.59-53.41l-18 18a2 2 0 102.82 2.82l18-18a2 2 0 00-2.82-2.82zm-15.18 54a2 2 0 00-2.82 2.82l18 18a2 2 0 002.82-2.82zM36.59 39.41a2 2 0 002.82-2.82l-18-18a2 2 0 00-2.82 2.82zM98.5 81.14V30.86A15.49 15.49 0 1081.14 13.5H30.86A15.49 15.49 0 1013.5 30.86v50.28A15.49 15.49 0 1030.86 98.5h50.28A15.49 15.49 0 1098.5 81.14zm-2 26.86a11.5 11.5 0 01-11.31-9.5h2.31a2 2 0 000-4h-63a2 2 0 000 4h2.31A11.49 11.49 0 1113.5 85.19v2.31a2 2 0 004 0v-63a2 2 0 00-4 0v2.31A11.49 11.49 0 1126.81 13.5H24.5a2 2 0 000 4h63a2 2 0 000-4h-2.31A11.49 11.49 0 1198.5 26.81V24.5a2 2 0 00-4 0v63a2 2 0 004 0v-2.31a11.49 11.49 0 01-2 22.81zM36.59 72.59l-18 18a2 2 0 102.82 2.82l18-18a2 2 0 00-2.82-2.82z" fill="#24272a"/></svg>