<svg xmlns="http://www.w3.org/2000/svg" viewBox="0 0 112 112"><defs><style>.cls-1{fill:#63cfe3}.cls-2{fill:#24272a}</style></defs><g id="Layer_2" data-name="Layer 2"><g id="Layer_1-2" data-name="Layer 1"><rect class="cls-1" x="20" y="20" width="72" height="27" rx="3"/><path class="cls-1" d="M65 65h9v9h-9zm18 0h9v9h-9zM65 83h9v9h-9zm18 0h9v9h-9z"/><path class="cls-2" d="M2 2h108v9H2z"/><path class="cls-2" d="M107 112H5a5 5 0 01-5-5V5a5 5 0 015-5h102a5 5 0 015 5v102a5 5 0 01-5 5zM5 4a1 1 0 00-1 1v102a1 1 0 001 1h102a1 1 0 001-1V5a1 1 0 00-1-1z"/><path class="cls-2" d="M110 13H2a2 2 0 010-4h108a2 2 0 010 4z"/><path d="M6 9a2 2 0 01-1.41-.59 1.88 1.88 0 01-.44-.64A2 2 0 014 7a1.72 1.72 0 010-.39 1.82 1.82 0 01.11-.38 1.63 1.63 0 01.19-.34 1.42 1.42 0 01.25-.3 1.42 1.42 0 01.3-.25 1.63 1.63 0 01.34-.19A1.82 1.82 0 015.61 5a2 2 0 01.78 0 1.82 1.82 0 01.38.11 1.63 1.63 0 01.34.19 1.42 1.42 0 01.3.25 1.42 1.42 0 01.25.3 2.27 2.27 0 01.19.34 2.72 2.72 0 01.15.42A1.72 1.72 0 018 7a2 2 0 01-.15.77 1.88 1.88 0 01-.44.64A2 2 0 016 9zm9 0a2 2 0 01-.77-.15 1.88 1.88 0 01-.64-.44A2 2 0 0113 7a1.72 1.72 0 010-.39 1.82 1.82 0 01.11-.38 2.27 2.27 0 01.19-.34 1.42 1.42 0 01.25-.3 2 2 0 012.82 0 1.42 1.42 0 01.25.3 2.27 2.27 0 01.19.34 2.72 2.72 0 01.11.38A1.72 1.72 0 0117 7a2 2 0 01-.59 1.41 1.92 1.92 0 01-.65.44A1.94 1.94 0 0115 9zm9 0a2 2 0 01-.77-.15 1.88 1.88 0 01-.64-.44A2 2 0 0122 7a1.72 1.72 0 010-.39 1.82 1.82 0 01.11-.38 1.63 1.63 0 01.19-.34 1.42 1.42 0 01.25-.3A2 2 0 0124.39 5a1.82 1.82 0 01.38.11 1.63 1.63 0 01.34.19 1.42 1.42 0 01.3.25 1.42 1.42 0 01.25.3 2.27 2.27 0 01.19.34 1.82 1.82 0 01.11.38A1.72 1.72 0 0126 7a2 2 0 01-.15.77 1.88 1.88 0 01-.44.64 1.42 1.42 0 01-.3.25 1.93 1.93 0 01-.34.19 1.66 1.66 0 01-.38.11A1.72 1.72 0 0124 9z" fill="#fff"/><path class="cls-2" d="M29 67h-9a2 2 0 010-4h9a2 2 0 010 4zm18 9H29a2 2 0 010-4h18a2 2 0 010 4zm0 9H29a2 2 0 010-4h18a2 2 0 010 4zm0 9H29a2 2 0 010-4h18a2 2 0 010 4zM20 76a2 2 0 01-1.41-.59 1.87 1.87 0 01-.26-.3 2.21 2.21 0 01-.18-.34A2.2 2.2 0 0118 74a1.72 1.72 0 010-.39 1.82 1.82 0 01.11-.38 1.63 1.63 0 01.19-.34 2.16 2.16 0 01.55-.55 2.27 2.27 0 01.34-.19 1.82 1.82 0 01.38-.11 2 2 0 011.8.55 1.42 1.42 0 01.25.3 2.27 2.27 0 01.19.34 2.72 2.72 0 01.11.38A2.58 2.58 0 0122 74a2 2 0 01-.59 1.41 1.42 1.42 0 01-.3.25 1.93 1.93 0 01-.34.19A2.2 2.2 0 0120 76zm0 9a1.72 1.72 0 01-.39 0 1.82 1.82 0 01-.38-.11 1.93 1.93 0 01-.34-.19 1.42 1.42 0 01-.3-.25A2 2 0 0118 83a1.72 1.72 0 010-.39 1.82 1.82 0 01.11-.38 1.63 1.63 0 01.19-.34 1.42 1.42 0 01.25-.3 2 2 0 012.82 0 1.42 1.42 0 01.25.3 2.27 2.27 0 01.19.34 2.72 2.72 0 01.11.38A1.72 1.72 0 0122 83a2 2 0 01-.59 1.41 1.42 1.42 0 01-.3.25 1.7 1.7 0 01-.35.19 1.58 1.58 0 01-.37.11A1.72 1.72 0 0120 85zm0 9a2.2 2.2 0 01-.77-.15 1.63 1.63 0 01-.34-.19 1.42 1.42 0 01-.3-.25 2 2 0 010-2.82 2 2 0 011.8-.55 2.72 2.72 0 01.38.11 2.27 2.27 0 01.34.19 1.42 1.42 0 01.3.25A2 2 0 0122 92a1.72 1.72 0 010 .39 1.66 1.66 0 01-.11.38 1.63 1.63 0 01-.19.34 1.42 1.42 0 01-.25.3 1.88 1.88 0 01-.64.44A2.07 2.07 0 0120 94zm0-54a2 2 0 01-1.11-3.66l9-6a2 2 0 012.22 0L38 35.6l16.89-11.26a2 2 0 012.22 0L65 29.6l16.89-11.26A2 2 0 0183 18h9a2 2 0 010 4h-8.39l-17.5 11.66a2 2 0 01-2.22 0L56 28.4 39.11 39.66a2 2 0 01-2.22 0L29 34.4l-7.89 5.26A2 2 0 0120 40zm72 9H20a2 2 0 010-4h72a2 2 0 010 4zM74 76h-9a2 2 0 01-2-2v-9a2 2 0 012-2h9a2 2 0 012 2v9a2 2 0 01-2 2zm-7-4h5v-5h-5zm25 4h-9a2 2 0 01-2-2v-9a2 2 0 012-2h9a2 2 0 012 2v9a2 2 0 01-2 2zm-7-4h5v-5h-5zM74 94h-9a2 2 0 01-2-2v-9a2 2 0 012-2h9a2 2 0 012 2v9a2 2 0 01-2 2zm-7-4h5v-5h-5zm25 4h-9a2 2 0 01-2-2v-9a2 2 0 012-2h9a2 2 0 012 2v9a2 2 0 01-2 2zm-7-4h5v-5h-5z"/></g></g></svg>